<mxfile host="app.diagrams.net" modified="2024-01-24T17:58:55.391Z" agent="Mozilla/5.0 (Windows NT 10.0; Win64; x64) AppleWebKit/537.36 (KHTML, like Gecko) Chrome/120.0.0.0 Safari/537.36 Edg/120.0.0.0" etag="yzrOKKbaHZb0egAhDFu2" version="23.0.1" type="github">
  <diagram name="Page-1" id="gdn3CGUFvM2zCtfdntpX">
    <mxGraphModel dx="1892" dy="631" grid="1" gridSize="10" guides="1" tooltips="1" connect="1" arrows="1" fold="1" page="1" pageScale="1" pageWidth="850" pageHeight="1100" math="0" shadow="0">
      <root>
        <mxCell id="0" />
        <mxCell id="1" parent="0" />
        <mxCell id="zeY5_pN0SkensCHVT8-L-8" value="" style="group" vertex="1" connectable="0" parent="1">
          <mxGeometry x="440" y="170" width="390" height="340" as="geometry" />
        </mxCell>
        <mxCell id="zeY5_pN0SkensCHVT8-L-6" value="" style="rounded=0;whiteSpace=wrap;html=1;" vertex="1" parent="zeY5_pN0SkensCHVT8-L-8">
          <mxGeometry y="23.18181818181818" width="390" height="316.8181818181818" as="geometry" />
        </mxCell>
        <mxCell id="zeY5_pN0SkensCHVT8-L-7" value="Application Store" style="text;html=1;align=center;verticalAlign=middle;resizable=0;points=[];autosize=1;strokeColor=none;fillColor=none;" vertex="1" parent="zeY5_pN0SkensCHVT8-L-8">
          <mxGeometry width="110" height="30" as="geometry" />
        </mxCell>
        <mxCell id="zeY5_pN0SkensCHVT8-L-4" value="MLFlow&lt;br&gt;Registry" style="rounded=0;whiteSpace=wrap;html=1;fillColor=#e1d5e7;strokeColor=#9673a6;" vertex="1" parent="zeY5_pN0SkensCHVT8-L-8">
          <mxGeometry x="140" y="170" width="120" height="60" as="geometry" />
        </mxCell>
        <mxCell id="zeY5_pN0SkensCHVT8-L-17" style="edgeStyle=orthogonalEdgeStyle;rounded=0;orthogonalLoop=1;jettySize=auto;html=1;exitX=0.5;exitY=1;exitDx=0;exitDy=0;entryX=0.5;entryY=0;entryDx=0;entryDy=0;" edge="1" parent="zeY5_pN0SkensCHVT8-L-8" source="zeY5_pN0SkensCHVT8-L-3" target="zeY5_pN0SkensCHVT8-L-4">
          <mxGeometry relative="1" as="geometry" />
        </mxCell>
        <mxCell id="zeY5_pN0SkensCHVT8-L-22" value="Staging OR Production&amp;nbsp;" style="edgeLabel;html=1;align=center;verticalAlign=middle;resizable=0;points=[];" vertex="1" connectable="0" parent="zeY5_pN0SkensCHVT8-L-17">
          <mxGeometry x="0.0333" y="3" relative="1" as="geometry">
            <mxPoint as="offset" />
          </mxGeometry>
        </mxCell>
        <mxCell id="zeY5_pN0SkensCHVT8-L-3" value="MLFlow&lt;br&gt;Experiments&lt;br&gt;" style="rounded=0;whiteSpace=wrap;html=1;fillColor=#dae8fc;strokeColor=#6c8ebf;" vertex="1" parent="zeY5_pN0SkensCHVT8-L-8">
          <mxGeometry x="140" y="50" width="120" height="60" as="geometry" />
        </mxCell>
        <mxCell id="zeY5_pN0SkensCHVT8-L-29" value="Inference Log" style="text;html=1;align=center;verticalAlign=middle;resizable=0;points=[];autosize=1;strokeColor=none;fillColor=none;" vertex="1" parent="zeY5_pN0SkensCHVT8-L-8">
          <mxGeometry x="230" y="265" width="100" height="30" as="geometry" />
        </mxCell>
        <mxCell id="zeY5_pN0SkensCHVT8-L-32" value="" style="shape=cylinder3;whiteSpace=wrap;html=1;boundedLbl=1;backgroundOutline=1;size=15;fillColor=#ffe6cc;strokeColor=#d79b00;" vertex="1" parent="zeY5_pN0SkensCHVT8-L-8">
          <mxGeometry x="200" y="250" width="40" height="60" as="geometry" />
        </mxCell>
        <mxCell id="zeY5_pN0SkensCHVT8-L-11" value="" style="group" vertex="1" connectable="0" parent="1">
          <mxGeometry x="100" y="580" width="185" height="110" as="geometry" />
        </mxCell>
        <mxCell id="zeY5_pN0SkensCHVT8-L-9" value="" style="verticalLabelPosition=bottom;html=1;verticalAlign=top;align=center;strokeColor=none;fillColor=#00BEF2;shape=mxgraph.azure.computer;pointerEvents=1;" vertex="1" parent="zeY5_pN0SkensCHVT8-L-11">
          <mxGeometry width="140" height="90" as="geometry" />
        </mxCell>
        <mxCell id="zeY5_pN0SkensCHVT8-L-10" value="FrontEnd( Javascript, React , Streamlit)" style="text;html=1;align=center;verticalAlign=middle;resizable=0;points=[];autosize=1;strokeColor=none;fillColor=none;" vertex="1" parent="zeY5_pN0SkensCHVT8-L-11">
          <mxGeometry x="-45" y="80" width="230" height="30" as="geometry" />
        </mxCell>
        <mxCell id="zeY5_pN0SkensCHVT8-L-15" style="edgeStyle=orthogonalEdgeStyle;rounded=0;orthogonalLoop=1;jettySize=auto;html=1;exitX=1;exitY=0.5;exitDx=0;exitDy=0;" edge="1" parent="1" source="zeY5_pN0SkensCHVT8-L-1" target="zeY5_pN0SkensCHVT8-L-12">
          <mxGeometry relative="1" as="geometry" />
        </mxCell>
        <mxCell id="zeY5_pN0SkensCHVT8-L-1" value="Model Training&lt;br&gt;( TPU, GPU heavy)" style="rounded=0;whiteSpace=wrap;html=1;fillColor=#f8cecc;strokeColor=#b85450;" vertex="1" parent="1">
          <mxGeometry x="40" y="221.39" width="120" height="60" as="geometry" />
        </mxCell>
        <mxCell id="zeY5_pN0SkensCHVT8-L-14" value="" style="group" vertex="1" connectable="0" parent="1">
          <mxGeometry x="290" y="220" width="100" height="108" as="geometry" />
        </mxCell>
        <mxCell id="zeY5_pN0SkensCHVT8-L-12" value="" style="sketch=0;outlineConnect=0;fontColor=#232F3E;gradientColor=none;fillColor=#01A88D;strokeColor=none;dashed=0;verticalLabelPosition=bottom;verticalAlign=top;align=center;html=1;fontSize=12;fontStyle=0;aspect=fixed;pointerEvents=1;shape=mxgraph.aws4.sagemaker_model;" vertex="1" parent="zeY5_pN0SkensCHVT8-L-14">
          <mxGeometry x="10.01" width="62.79" height="62.79" as="geometry" />
        </mxCell>
        <mxCell id="zeY5_pN0SkensCHVT8-L-13" value="Trained Model&lt;br&gt;( model.pt)" style="text;html=1;align=center;verticalAlign=middle;resizable=0;points=[];autosize=1;strokeColor=none;fillColor=none;" vertex="1" parent="zeY5_pN0SkensCHVT8-L-14">
          <mxGeometry y="68" width="100" height="40" as="geometry" />
        </mxCell>
        <mxCell id="zeY5_pN0SkensCHVT8-L-16" value="" style="edgeStyle=orthogonalEdgeStyle;rounded=0;orthogonalLoop=1;jettySize=auto;html=1;entryX=0;entryY=0.5;entryDx=0;entryDy=0;" edge="1" parent="1" source="zeY5_pN0SkensCHVT8-L-12" target="zeY5_pN0SkensCHVT8-L-3">
          <mxGeometry relative="1" as="geometry" />
        </mxCell>
        <mxCell id="zeY5_pN0SkensCHVT8-L-37" style="edgeStyle=orthogonalEdgeStyle;rounded=0;orthogonalLoop=1;jettySize=auto;html=1;exitX=1;exitY=0.5;exitDx=0;exitDy=0;entryX=0;entryY=0.5;entryDx=0;entryDy=0;" edge="1" parent="1" source="zeY5_pN0SkensCHVT8-L-2" target="zeY5_pN0SkensCHVT8-L-4">
          <mxGeometry relative="1" as="geometry" />
        </mxCell>
        <mxCell id="zeY5_pN0SkensCHVT8-L-2" value="Model Inference( accuracy, ROUGE, BLEU, metrics )" style="rounded=0;whiteSpace=wrap;html=1;fillColor=#d5e8d4;strokeColor=#82b366;" vertex="1" parent="1">
          <mxGeometry x="100" y="340" width="120" height="60" as="geometry" />
        </mxCell>
        <mxCell id="zeY5_pN0SkensCHVT8-L-20" style="edgeStyle=orthogonalEdgeStyle;rounded=0;orthogonalLoop=1;jettySize=auto;html=1;exitX=0.5;exitY=0;exitDx=0;exitDy=0;exitPerimeter=0;entryX=0.5;entryY=1;entryDx=0;entryDy=0;" edge="1" parent="1" source="zeY5_pN0SkensCHVT8-L-9" target="zeY5_pN0SkensCHVT8-L-2">
          <mxGeometry relative="1" as="geometry">
            <Array as="points">
              <mxPoint x="160" y="440" />
              <mxPoint x="160" y="440" />
            </Array>
          </mxGeometry>
        </mxCell>
        <mxCell id="zeY5_pN0SkensCHVT8-L-21" value="Client Request&amp;nbsp;&lt;br&gt;HTTP" style="edgeLabel;html=1;align=center;verticalAlign=middle;resizable=0;points=[];" vertex="1" connectable="0" parent="zeY5_pN0SkensCHVT8-L-20">
          <mxGeometry x="0.0333" relative="1" as="geometry">
            <mxPoint as="offset" />
          </mxGeometry>
        </mxCell>
        <mxCell id="zeY5_pN0SkensCHVT8-L-27" style="edgeStyle=orthogonalEdgeStyle;rounded=0;orthogonalLoop=1;jettySize=auto;html=1;exitX=0.5;exitY=0;exitDx=0;exitDy=0;exitPerimeter=0;" edge="1" parent="1" source="zeY5_pN0SkensCHVT8-L-23" target="zeY5_pN0SkensCHVT8-L-10">
          <mxGeometry relative="1" as="geometry" />
        </mxCell>
        <mxCell id="zeY5_pN0SkensCHVT8-L-23" value="Maintenance &lt;br&gt;Engineer&amp;nbsp;" style="shape=umlActor;verticalLabelPosition=bottom;verticalAlign=top;html=1;outlineConnect=0;" vertex="1" parent="1">
          <mxGeometry x="145" y="740" width="30" height="60" as="geometry" />
        </mxCell>
        <mxCell id="zeY5_pN0SkensCHVT8-L-5" value="Model &lt;br&gt;Monitoring" style="rounded=0;whiteSpace=wrap;html=1;fillColor=#ffe6cc;strokeColor=#d79b00;" vertex="1" parent="1">
          <mxGeometry x="600" y="570" width="120" height="60" as="geometry" />
        </mxCell>
        <mxCell id="zeY5_pN0SkensCHVT8-L-33" style="edgeStyle=orthogonalEdgeStyle;rounded=0;orthogonalLoop=1;jettySize=auto;html=1;exitX=0.75;exitY=1;exitDx=0;exitDy=0;entryX=0;entryY=0;entryDx=0;entryDy=37.5;entryPerimeter=0;" edge="1" parent="1" source="zeY5_pN0SkensCHVT8-L-2" target="zeY5_pN0SkensCHVT8-L-32">
          <mxGeometry relative="1" as="geometry">
            <Array as="points">
              <mxPoint x="160" y="400" />
              <mxPoint x="160" y="458" />
            </Array>
          </mxGeometry>
        </mxCell>
        <mxCell id="zeY5_pN0SkensCHVT8-L-34" style="edgeStyle=orthogonalEdgeStyle;rounded=0;orthogonalLoop=1;jettySize=auto;html=1;exitX=0;exitY=0.5;exitDx=0;exitDy=0;entryX=1.014;entryY=0.244;entryDx=0;entryDy=0;entryPerimeter=0;" edge="1" parent="1" source="zeY5_pN0SkensCHVT8-L-5" target="zeY5_pN0SkensCHVT8-L-9">
          <mxGeometry relative="1" as="geometry">
            <Array as="points">
              <mxPoint x="610" y="602" />
            </Array>
          </mxGeometry>
        </mxCell>
        <mxCell id="zeY5_pN0SkensCHVT8-L-35" value="ML&amp;nbsp;&lt;br&gt;Engineer&amp;nbsp;" style="shape=umlActor;verticalLabelPosition=bottom;verticalAlign=top;html=1;outlineConnect=0;" vertex="1" parent="1">
          <mxGeometry x="320" y="740" width="30" height="60" as="geometry" />
        </mxCell>
        <mxCell id="zeY5_pN0SkensCHVT8-L-36" style="edgeStyle=orthogonalEdgeStyle;rounded=0;orthogonalLoop=1;jettySize=auto;html=1;exitX=0;exitY=0.3333333333333333;exitDx=0;exitDy=0;exitPerimeter=0;entryX=0.514;entryY=0.833;entryDx=0;entryDy=0;entryPerimeter=0;" edge="1" parent="1" source="zeY5_pN0SkensCHVT8-L-35" target="zeY5_pN0SkensCHVT8-L-10">
          <mxGeometry relative="1" as="geometry">
            <Array as="points">
              <mxPoint x="320" y="720" />
              <mxPoint x="161" y="720" />
            </Array>
          </mxGeometry>
        </mxCell>
        <mxCell id="zeY5_pN0SkensCHVT8-L-38" style="edgeStyle=orthogonalEdgeStyle;rounded=0;orthogonalLoop=1;jettySize=auto;html=1;exitX=0.5;exitY=1;exitDx=0;exitDy=0;exitPerimeter=0;entryX=0.5;entryY=0;entryDx=0;entryDy=0;" edge="1" parent="1" source="zeY5_pN0SkensCHVT8-L-32" target="zeY5_pN0SkensCHVT8-L-5">
          <mxGeometry relative="1" as="geometry" />
        </mxCell>
        <mxCell id="zeY5_pN0SkensCHVT8-L-39" style="edgeStyle=orthogonalEdgeStyle;rounded=0;orthogonalLoop=1;jettySize=auto;html=1;exitX=-0.014;exitY=0.411;exitDx=0;exitDy=0;exitPerimeter=0;entryX=0;entryY=0.5;entryDx=0;entryDy=0;" edge="1" parent="1" source="zeY5_pN0SkensCHVT8-L-9" target="zeY5_pN0SkensCHVT8-L-1">
          <mxGeometry relative="1" as="geometry">
            <mxPoint x="20" y="490" as="sourcePoint" />
            <mxPoint x="20" y="310" as="targetPoint" />
            <Array as="points">
              <mxPoint x="20" y="617" />
              <mxPoint x="20" y="251" />
            </Array>
          </mxGeometry>
        </mxCell>
        <mxCell id="zeY5_pN0SkensCHVT8-L-40" value="Client Request&amp;nbsp;&lt;br&gt;HTTP" style="edgeLabel;html=1;align=center;verticalAlign=middle;resizable=0;points=[];" vertex="1" connectable="0" parent="zeY5_pN0SkensCHVT8-L-39">
          <mxGeometry x="0.0333" relative="1" as="geometry">
            <mxPoint as="offset" />
          </mxGeometry>
        </mxCell>
      </root>
    </mxGraphModel>
  </diagram>
</mxfile>
